Coordinates
version=1
nRows=8
nColumns=40
inDegrees=yes

Units are S.I. units (second, meters, Newtons, ...)
If the header above contains a line with 'inDegrees', this indicates whether rotational values are in degrees (yes) or radians (no).

endheader
time	pelvis_tilt	pelvis_list	pelvis_rotation	pelvis_tx	pelvis_ty	pelvis_tz	hip_flexion_r	hip_adduction_r	hip_rotation_r	knee_angle_r	knee_angle_r_beta	ankle_angle_r	subtalar_angle_r	mtp_angle_r	hip_flexion_l	hip_adduction_l	hip_rotation_l	knee_angle_l	knee_angle_l_beta	ankle_angle_l	subtalar_angle_l	mtp_angle_l	lumbar_extension	lumbar_bending	lumbar_rotation	arm_flex_r	arm_add_r	arm_rot_r	elbow_flex_r	pro_sup_r	wrist_flex_r	wrist_dev_r	arm_flex_l	arm_add_l	arm_rot_l	elbow_flex_l	pro_sup_l	wrist_flex_l	wrist_dev_l
     15.25000000	      0.01312504	    -11.12729567	    178.56122930	      0.42482087	      0.53947942	     -0.60773835	     90.73062307	     -8.53382871	     15.14072129	    113.71835207	      1.98475966	     26.93566514	      0.00000000	      0.00000000	     82.92115350	     -4.60782354	     -8.08802625	    110.96803277	      1.93675754	     29.08245986	      0.00000000	      0.00000000	    -46.19070152	     -8.47976102	     -8.39244838	     50.12154751	    -17.60909274	     61.84572736	     14.79347422	     12.76552151	      0.00000000	      0.00000000	     57.94556543	    -20.75291189	     46.77782816	     18.29030590	     87.69287215	      0.00000000	      0.00000000
     15.25500000	     -0.07739257	    -11.13548302	    178.51046312	      0.42510796	      0.53899746	     -0.60791591	     90.71190043	     -8.45044241	     15.16922212	    113.75840160	      1.98545866	     26.92806099	      0.00000000	      0.00000000	     82.89792359	     -4.66305658	     -8.08978550	    111.02971152	      1.93783403	     29.10373620	      0.00000000	      0.00000000	    -46.19247142	     -8.53808189	     -8.35100107	     50.08949114	    -17.61248973	     61.85096045	     14.79566610	     12.74938549	      0.00000000	      0.00000000	     57.94568826	    -20.75970918	     46.76752263	     18.30382622	     87.68301321	      0.00000000	      0.00000000
     15.26000000	     -0.15851044	    -11.11725958	    178.56515673	      0.42507248	      0.53835778	     -0.60780825	     90.73298151	     -8.53180384	     15.17558818	    113.89646414	      1.98786831	     26.91717274	      0.00000000	      0.00000000	     82.92143916	     -4.60962211	     -8.05422482	    111.16337858	      1.94016696	     29.13506795	      0.00000000	      0.00000000	    -46.14955111	     -8.48714289	     -8.34645281	     49.99486626	    -17.62408670	     61.51734671	     14.75454263	     13.42705230	      0.00000000	      0.00000000	     57.82700618	    -20.66194802	     46.37991651	     18.24829335	     87.71817826	      0.00000000	      0.00000000
     15.26500000	     -0.28618966	    -11.12364118	    178.51449220	      0.42518990	      0.53785018	     -0.60791692	     90.69023280	     -8.46958941	     15.20774326	    113.98886369	      1.98948098	     26.92829722	      0.00000000	      0.00000000	     82.87106519	     -4.66791883	     -8.05869800	    111.26862451	      1.94200385	     29.14400639	      0.00000000	      0.00000000	    -46.16909673	     -8.53247230	     -8.31468856	     49.96078920	    -17.63564081	     61.51369436	     14.76893377	     13.38081106	      0.00000000	      0.00000000	     57.78409648	    -20.67834932	     46.38478042	     18.27443894	     87.69655503	      0.00000000	      0.00000000
     15.27000000	     -0.58936773	    -11.23936167	    178.57351002	      0.42526375	      0.53791529	     -0.60773522	     90.46527773	     -8.68812491	     15.32684393	    114.08417881	      1.99114454	     26.96576504	      0.00000000	      0.00000000	     82.56808815	     -4.48354705	     -8.16466262	    111.28632568	      1.94231280	     29.20725666	      0.00000000	      0.00000000	    -46.42912809	     -8.55118479	     -8.47346090	     49.98350598	    -17.67630717	     61.64243688	     14.66256438	     14.63697049	      0.00000000	      0.00000000	     57.76756300	    -20.74413941	     46.39315470	     18.39899316	     87.55349546	      0.00000000	      0.00000000
     15.27500000	     -0.67278965	    -11.22620016	    178.52680814	      0.42543072	      0.53739836	     -0.60794013	     90.44483843	     -8.59235988	     15.34917473	    114.15294821	      1.99234480	     26.96993711	      0.00000000	      0.00000000	     82.55544756	     -4.57582409	     -8.17128524	    111.36442916	      1.94367596	     29.22118372	      0.00000000	      0.00000000	    -46.42109330	     -8.59727826	     -8.43041305	     49.95663782	    -17.67570979	     61.61241151	     14.68090985	     14.59846923	      0.00000000	      0.00000000	     57.74630632	    -20.75114528	     46.37863973	     18.40808738	     87.56806709	      0.00000000	      0.00000000
     15.28000000	     -0.76742712	    -11.09007699	    178.56667295	      0.42544890	      0.53682584	     -0.60786999	     90.39449723	     -8.64338754	     15.19181958	    114.25403421	      1.99410908	     27.02419042	      0.00000000	      0.00000000	     82.58635235	     -4.55249999	     -7.98149921	    111.50722527	      1.94616822	     29.22006463	      0.00000000	      0.00000000	    -46.39130449	     -8.46481625	     -8.33193112	     49.87656732	    -17.71824032	     61.50380699	     15.04141056	     11.98772710	      0.00000000	      0.00000000	     57.67092265	    -20.71466281	     46.26010391	     18.45048885	     87.61791153	      0.00000000	      0.00000000
     15.28500000	     -0.83251754	    -11.10658439	    178.52511059	      0.42563644	      0.53644299	     -0.60814436	     90.37872558	     -8.54989425	     15.22418220	    114.29123082	      1.99475828	     27.02375426	      0.00000000	      0.00000000	     82.57135770	     -4.63158367	     -7.99956300	    111.55750630	      1.94704579	     29.22948119	      0.00000000	      0.00000000	    -46.39331838	     -8.53430923	     -8.29694766	     49.86607938	    -17.71177335	     61.50606377	     15.03910156	     11.97848542	      0.00000000	      0.00000000	     57.68437943	    -20.71946555	     46.24237751	     18.45545627	     87.61804516	      0.00000000	      0.00000000
